<?xml version="1.0" encoding="UTF-8" standalone="no"?>
<!-- Created with Inkscape (http://www.inkscape.org/) -->

<svg
   xmlns:dc="http://purl.org/dc/elements/1.1/"
   xmlns:cc="http://creativecommons.org/ns#"
   xmlns:rdf="http://www.w3.org/1999/02/22-rdf-syntax-ns#"
   xmlns:svg="http://www.w3.org/2000/svg"
   xmlns="http://www.w3.org/2000/svg"
   xmlns:sodipodi="http://sodipodi.sourceforge.net/DTD/sodipodi-0.dtd"
   xmlns:inkscape="http://www.inkscape.org/namespaces/inkscape"
   width="58.582726mm"
   height="47.067249mm"
   viewBox="0 0 58.582726 47.06725"
   version="1.1"
   id="svg8"
   inkscape:version="0.92.2 (5c3e80d, 2017-08-06)"
   sodipodi:docname="lw.svg">
  <defs
     id="defs2" />
  <sodipodi:namedview
     id="base"
     pagecolor="#ffffff"
     bordercolor="#666666"
     borderopacity="1.0"
     inkscape:pageopacity="0.0"
     inkscape:pageshadow="2"
     inkscape:zoom="1.4"
     inkscape:cx="-63.52616"
     inkscape:cy="15.070023"
     inkscape:document-units="mm"
     inkscape:current-layer="layer1"
     showgrid="false"
     inkscape:window-width="1920"
     inkscape:window-height="1017"
     inkscape:window-x="-8"
     inkscape:window-y="-8"
     inkscape:window-maximized="1" />
  <metadata
     id="metadata5">
    <rdf:RDF>
      <cc:Work
         rdf:about="">
        <dc:format>image/svg+xml</dc:format>
        <dc:type
           rdf:resource="http://purl.org/dc/dcmitype/StillImage" />
        <dc:title></dc:title>
      </cc:Work>
    </rdf:RDF>
  </metadata>
  <g
     inkscape:label="Calque 1"
     inkscape:groupmode="layer"
     id="layer1"
     transform="translate(-18.350023,-41.865255)">
    <text
       xml:space="preserve"
       style="font-style:normal;font-variant:normal;font-weight:normal;font-stretch:normal;font-size:55.58240509px;line-height:1.25;font-family:Pristina;-inkscape-font-specification:Pristina;font-variant-ligatures:normal;font-variant-caps:normal;font-variant-numeric:normal;text-align:start;letter-spacing:0px;word-spacing:0px;writing-mode:lr-tb;text-anchor:start;fill:#000000;fill-opacity:1;stroke:none;stroke-width:0.28949168"
       x="23.237038"
       y="73.089142"
       id="text12"
       transform="matrix(0.86072215,0.02687425,-0.02190831,1.1611311,0,0)"><tspan
         sodipodi:role="line"
         id="tspan10"
         x="23.237038"
         y="73.089142"
         style="font-size:55.58240509px;stroke-width:0.28949168">L</tspan></text>
    <g
       aria-label="W"
       transform="matrix(0.90748233,0.04354961,-0.02015219,0.89571257,12.822778,0.98487656)"
       style="font-style:normal;font-variant:normal;font-weight:normal;font-stretch:normal;font-size:47.52697754px;line-height:1.25;font-family:Pristina;-inkscape-font-specification:Pristina;font-variant-ligatures:normal;font-variant-caps:normal;font-variant-numeric:normal;text-align:start;letter-spacing:0px;word-spacing:0px;writing-mode:lr-tb;text-anchor:start;fill:#000000;fill-opacity:1;stroke:none;stroke-width:0.49507266"
       id="text16">
      <path
         d="m 71.998925,71.781487 q 0.255272,0.301685 0.255272,0.649783 0,0.696196 -0.580164,0.696196 -0.162445,0 -0.301685,-0.116032 -0.487337,-0.417718 -1.229946,-0.905055 -4.01473,14.782561 -9.70033,21.257183 -0.60337,0.67299 -1.624457,0.67299 -0.974675,0 -2.042175,-0.533751 -3.248915,-0.951467 -4.502067,-1.972555 -1.833316,-1.462011 -1.995762,-4.455654 -0.06962,-0.858642 -0.06962,-1.856523 0,-6.474622 1.833316,-13.436582 -2.552718,2.738371 -5.662394,7.124406 -3.643425,5.128643 -5.035817,8.423971 -1.485218,3.457773 -2.065381,4.316415 -0.464131,0.672989 -1.601251,1.229946 -1.856523,0.928261 -2.552719,0.928261 -0.487337,0 -0.487337,-0.417717 0,-0.324892 0.278479,-0.928262 2.390272,-5.059023 4.803752,-13.854299 2.413479,-8.818482 2.413479,-12.624354 0,-0.603369 -0.09283,-0.99788 -2.413479,0.580163 -5.778427,2.135001 -3.225707,1.485218 -5.430328,2.947229 -1.183533,0.812229 -1.183533,2.158208 0,0.858641 0.46413,1.926142 0.116033,0.232065 0.116033,0.394511 0,0.394511 -0.394511,0.394511 -0.417717,0 -0.812229,-0.487337 -2.831196,-3.504187 -2.73837,-4.525274 0.06962,-1.20674 2.924023,-2.715164 2.065381,-1.090707 6.033698,-2.390273 4.08435,-1.322772 5.198263,-1.879729 0.116033,-0.348098 0.232066,-0.696196 0.208858,-0.53375 0.742609,-0.53375 0.835435,0 2.622338,1.322772 1.462011,1.0675 1.462011,2.691958 0,0.394511 -0.116032,1.578044 -0.185653,1.763696 -1.578045,7.124405 -1.322772,5.035818 -2.320653,8.006254 2.018968,-2.94723 6.544242,-8.864896 4.362828,-5.732013 5.105437,-6.451415 0.742609,-2.738371 0.974675,-3.272121 0.53375,-1.20674 1.438805,-1.20674 0.301684,0 0.672989,0.116033 2.552718,0.789022 2.552718,1.531631 0,0.417717 -0.556956,1.021087 l -1.601251,1.694077 v 0 l -0.02321,0.02321 q -3.179294,10.37332 -3.179294,17.33528 0,0.974674 0.04641,1.926142 0.139239,2.413479 1.160326,3.968317 1.021088,1.554838 2.41348,1.531631 1.624457,-0.02321 2.947229,-1.856523 2.297447,-3.179294 4.757339,-8.841688 2.807991,-6.42821 3.597013,-11.301581 -1.090707,-1.253153 -1.090707,-3.504187 0,-1.879729 0.765815,-4.664513 0.394511,-1.508424 1.229946,-1.508424 0.765816,0 1.856523,1.299566 0.812229,0.997881 0.812229,2.297446 0,0.812229 -1.345979,6.544242 0.324891,0.324892 1.438805,1.531631 z"
         style="font-size:47.52697754px;stroke-width:0.49507266"
         id="path20"
         inkscape:connector-curvature="0" />
    </g>
  </g>
</svg>
